<?xml version="1.0" encoding="UTF-8" standalone="no"?>
<svg id="svg" version="1.1" width="512" height="512" viewBox="0, 0, 400,400"
  xmlns="http://www.w3.org/2000/svg"
  xmlns:svg="http://www.w3.org/2000/svg">
  <path id="atomjoy-path" style="fill:#000000;fill-opacity:1;stroke:#000000;stroke-width:2;stroke-dasharray:none" d="m 139.79584,342.41558 c 27.92891,-14.75128 42.88751,-47.60105 35.19423,-78.61553 -4.89714,-19.74222 -21.16407,-32.80099 -26.88948,-51.48807 -9.5542,-31.18385 20.34803,-60.92365 52.60643,-60.92355 32.25839,1e-4 62.16063,29.73991 52.60642,60.92375 -5.72541,18.68707 -21.99235,31.74584 -26.88948,51.48807 -7.69326,31.01446 7.26532,63.86425 35.19423,78.61553 32.7579,17.30184 75.83849,11.95174 100.66024,-16.04854 35.54993,-40.10227 31.85142,-104.78844 -3.7986,-144.42515 C 319.01883,138.0682 286.19019,93.845549 245.41496,51.244181 234.47346,39.812659 216.37167,32.911585 200.70702,32.911486 185.04237,32.911387 167.37249,39.812471 156.431,51.243985 115.65577,93.845341 82.395199,138.06801 42.934193,181.94189 7.2841844,221.5786 3.5856726,286.26479 39.135603,326.36704 c 24.821746,28.00028 67.902337,33.35038 100.660237,16.04854 z" />
</svg>
